<svg width="34" height="35" viewBox="0 0 34 35" fill="none" xmlns="http://www.w3.org/2000/svg">
<g clip-path="url(#clip0_72_17)">
<path d="M33.4484 7.15125C32.2678 7.67441 30.9995 8.02789 29.6662 8.18766C31.0419 7.36446 32.0712 6.06884 32.5619 4.54255C31.2693 5.3103 29.8547 5.85071 28.3795 6.14029C27.3874 5.08106 26.0734 4.37899 24.6415 4.14307C23.2096 3.90716 21.7398 4.15059 20.4604 4.83559C19.181 5.52058 18.1635 6.60881 17.5659 7.93132C16.9684 9.25383 16.8242 10.7366 17.1557 12.1495C14.5366 12.018 11.9745 11.3373 9.63556 10.1515C7.29663 8.9657 5.23316 7.30136 3.57909 5.26648C3.01351 6.24209 2.68831 7.37324 2.68831 8.57791C2.68768 9.66239 2.95474 10.7303 3.4658 11.6868C3.97686 12.6433 4.71612 13.4589 5.61798 14.0611C4.57206 14.0279 3.54921 13.7452 2.63458 13.2368V13.3217C2.63447 14.8427 3.16061 16.3169 4.12371 17.4942C5.08681 18.6714 6.42756 19.4792 7.91845 19.7805C6.94818 20.0431 5.93093 20.0818 4.94353 19.8936C5.36417 21.2024 6.18354 22.3468 7.28694 23.1668C8.39033 23.9867 9.72251 24.4411 11.097 24.4663C8.76374 26.2979 5.88222 27.2914 2.91595 27.2871C2.39051 27.2872 1.86551 27.2565 1.34366 27.1952C4.35459 29.1311 7.85954 30.1585 11.4391 30.1545C23.5565 30.1545 30.1808 20.1184 30.1808 11.4143C30.1808 11.1315 30.1738 10.8459 30.161 10.5631C31.4495 9.63125 32.5618 8.47737 33.4456 7.15549L33.4484 7.15125Z" fill="#F8F8F8"/>
</g>
<defs>
<clipPath id="clip0_72_17">
<rect width="33.9344" height="33.9344" fill="white" transform="translate(0.0187988 0.170898)"/>
</clipPath>
</defs>
</svg>
