<svg width="35" height="35" viewBox="0 0 35 35" fill="none" xmlns="http://www.w3.org/2000/svg">
<path fill-rule="evenodd" clip-rule="evenodd" d="M11.3717 1.67828C13.0302 1.60193 13.559 1.58496 17.7839 1.58496C22.0087 1.58496 22.5375 1.60334 24.1946 1.67828C25.8518 1.75322 26.9829 2.01762 27.9727 2.4008C29.0091 2.79246 29.9493 3.40469 30.727 4.1965C31.5188 4.97274 32.1296 5.9116 32.5199 6.94942C32.9045 7.93918 33.1675 9.07032 33.2438 10.7246C33.3202 12.386 33.3371 12.9148 33.3371 17.1382C33.3371 21.3631 33.3187 21.8919 33.2438 23.5504C33.1689 25.2047 32.9045 26.3359 32.5199 27.3256C32.1296 28.3636 31.5178 29.304 30.727 30.0814C29.9493 30.8732 29.0091 31.484 27.9727 31.8742C26.9829 32.2588 25.8518 32.5218 24.1975 32.5982C22.5375 32.6745 22.0087 32.6915 17.7839 32.6915C13.559 32.6915 13.0302 32.6731 11.3717 32.5982C9.71737 32.5232 8.58622 32.2588 7.59647 31.8742C6.55853 31.4839 5.61812 30.8721 4.84071 30.0814C4.04945 29.3047 3.43712 28.3647 3.04643 27.327C2.66325 26.3373 2.40026 25.2061 2.32391 23.5518C2.24756 21.8905 2.23059 21.3616 2.23059 17.1382C2.23059 12.9134 2.24897 12.3846 2.32391 10.7275C2.39885 9.07032 2.66325 7.93918 3.04643 6.94942C3.4377 5.91171 4.05049 4.97177 4.84213 4.19508C5.61843 3.40399 6.55789 2.79167 7.59505 2.4008C8.58481 2.01762 9.71595 1.75463 11.3703 1.67828H11.3717ZM24.0688 4.47787C22.4286 4.40293 21.9366 4.38738 17.7839 4.38738C13.6311 4.38738 13.1391 4.40293 11.4989 4.47787C9.98177 4.54715 9.15886 4.80025 8.61026 5.01375C7.88491 5.29654 7.366 5.63164 6.82163 6.176C6.30561 6.67802 5.90849 7.28917 5.65938 7.96463C5.44587 8.51323 5.19278 9.33614 5.1235 10.8533C5.04856 12.4935 5.03301 12.9855 5.03301 17.1382C5.03301 21.2909 5.04856 21.783 5.1235 23.4232C5.19278 24.9403 5.44587 25.7632 5.65938 26.3118C5.90823 26.9863 6.30555 27.5985 6.82163 28.1005C7.32358 28.6165 7.93581 29.0139 8.61026 29.2627C9.15886 29.4762 9.98177 29.7293 11.4989 29.7986C13.1391 29.8735 13.6297 29.8891 17.7839 29.8891C21.938 29.8891 22.4286 29.8735 24.0688 29.7986C25.5859 29.7293 26.4089 29.4762 26.9575 29.2627C27.6828 28.9799 28.2017 28.6448 28.7461 28.1005C29.2622 27.5985 29.6595 26.9863 29.9083 26.3118C30.1218 25.7632 30.3749 24.9403 30.4442 23.4232C30.5192 21.783 30.5347 21.2909 30.5347 17.1382C30.5347 12.9855 30.5192 12.4935 30.4442 10.8533C30.3749 9.33614 30.1218 8.51323 29.9083 7.96463C29.6255 7.23928 29.2904 6.72037 28.7461 6.176C28.244 5.66002 27.6329 5.2629 26.9575 5.01375C26.4089 4.80025 25.5859 4.54715 24.0688 4.47787ZM15.7973 21.9329C16.9067 22.3947 18.1421 22.457 19.2924 22.1092C20.4427 21.7614 21.4366 21.025 22.1043 20.0258C22.772 19.0266 23.072 17.8266 22.9533 16.6308C22.8345 15.4349 22.3042 14.3174 21.453 13.4691C20.9104 12.9268 20.2543 12.5116 19.5319 12.2533C18.8096 11.995 18.039 11.9001 17.2755 11.9754C16.5121 12.0507 15.7749 12.2943 15.1169 12.6888C14.4589 13.0832 13.8966 13.6186 13.4704 14.2564C13.0442 14.8943 12.7647 15.6187 12.652 16.3775C12.5394 17.1363 12.5963 17.9106 12.8189 18.6448C13.0414 19.3789 13.424 20.0546 13.939 20.6232C14.454 21.1917 15.0887 21.639 15.7973 21.9329ZM12.131 11.4853C12.8733 10.743 13.7546 10.1541 14.7245 9.75235C15.6945 9.35059 16.734 9.14381 17.7839 9.14381C18.8337 9.14381 19.8733 9.35059 20.8432 9.75235C21.8131 10.1541 22.6944 10.743 23.4368 11.4853C24.1791 12.2277 24.768 13.109 25.1697 14.0789C25.5715 15.0488 25.7783 16.0884 25.7783 17.1382C25.7783 18.1881 25.5715 19.2276 25.1697 20.1976C24.768 21.1675 24.1791 22.0488 23.4368 22.7911C21.9375 24.2904 19.9041 25.1326 17.7839 25.1326C15.6636 25.1326 13.6302 24.2904 12.131 22.7911C10.6317 21.2919 9.78944 19.2585 9.78944 17.1382C9.78944 15.018 10.6317 12.9846 12.131 11.4853ZM27.5513 10.3344C27.7353 10.1608 27.8825 9.95217 27.9844 9.7207C28.0863 9.48923 28.1406 9.23967 28.1443 8.9868C28.148 8.73394 28.1009 8.4829 28.0059 8.24856C27.9108 8.01422 27.7697 7.80133 27.5908 7.62251C27.412 7.44369 27.1991 7.30256 26.9648 7.20749C26.7305 7.11242 26.4794 7.06533 26.2266 7.06902C25.9737 7.0727 25.7241 7.12709 25.4927 7.22895C25.2612 7.33082 25.0525 7.47809 24.879 7.66205C24.5415 8.01981 24.3567 8.49502 24.3639 8.9868C24.371 9.47858 24.5696 9.9482 24.9174 10.296C25.2651 10.6438 25.7348 10.8423 26.2266 10.8495C26.7183 10.8566 27.1935 10.6719 27.5513 10.3344Z" fill="#F8F8F8"/>
</svg>
