<svg width="41" height="42" viewBox="0 0 41 42" fill="none" xmlns="http://www.w3.org/2000/svg">
<path fill-rule="evenodd" clip-rule="evenodd" d="M2.84586 20.9667C2.84586 20.6324 2.97865 20.3118 3.21502 20.0754C3.4514 19.8391 3.77199 19.7063 4.10627 19.7063H33.8345L25.9014 11.7757C25.6647 11.539 25.5318 11.2181 25.5318 10.8833C25.5318 10.5486 25.6647 10.2276 25.9014 9.99097C26.1381 9.7543 26.4591 9.62134 26.7938 9.62134C27.1285 9.62134 27.4495 9.7543 27.6861 9.99097L37.7695 20.0743C37.8869 20.1914 37.98 20.3305 38.0435 20.4836C38.1071 20.6367 38.1398 20.8009 38.1398 20.9667C38.1398 21.1325 38.1071 21.2966 38.0435 21.4498C37.98 21.6029 37.8869 21.742 37.7695 21.8591L27.6861 31.9424C27.4495 32.1791 27.1285 32.312 26.7938 32.312C26.4591 32.312 26.1381 32.1791 25.9014 31.9424C25.6647 31.7057 25.5318 31.3847 25.5318 31.05C25.5318 30.7153 25.6647 30.3943 25.9014 30.1576L33.8345 22.2271H4.10627C3.77199 22.2271 3.4514 22.0943 3.21502 21.8579C2.97865 21.6216 2.84586 21.301 2.84586 20.9667Z" fill="white"/>
</svg>
