<svg width="101" height="102" viewBox="0 0 101 102" fill="none" xmlns="http://www.w3.org/2000/svg">
<rect x="0.166626" y="0.81665" width="100.833" height="100.833" rx="16.1333" fill="#F2785C"/>
<path d="M74.7132 72.3625C74.7132 72.9095 74.4983 73.4341 74.1157 73.8209C73.7332 74.2077 73.2143 74.425 72.6732 74.425H35.9528C35.4118 74.425 34.8929 74.2077 34.5103 73.8209C34.1277 73.4341 33.9128 72.9095 33.9128 72.3625C33.9128 71.8155 34.1277 71.2909 34.5103 70.9041C34.8929 70.5173 35.4118 70.3 35.9528 70.3H72.6732C73.2143 70.3 73.7332 70.5173 74.1157 70.9041C74.4983 71.2909 74.7132 71.8155 74.7132 72.3625ZM80.8333 51.7375V57.925C80.8333 58.472 80.6184 58.9966 80.2358 59.3834C79.8532 59.7702 79.3343 59.9875 78.7933 59.9875H33.8618C31.6669 59.9952 29.5287 59.2833 27.7679 57.9585C26.007 56.6338 24.7184 54.7676 24.0952 52.6398L20.4997 40.5484C20.3211 39.9297 20.2857 39.2777 20.3963 38.6428C20.5068 38.008 20.7603 37.4074 21.1372 36.8875C21.5225 36.3747 22.02 35.9589 22.5906 35.6727C23.1613 35.3864 23.7897 35.2375 24.4267 35.2375H28.8128C29.1106 35.2381 29.4046 35.3055 29.6735 35.4348C29.9425 35.5641 30.1798 35.752 30.3683 35.9852L34.8563 41.425H39.2424L36.9473 34.4899C36.7407 33.8687 36.6835 33.2068 36.7803 32.5589C36.8771 31.9109 37.1252 31.2956 37.5041 30.7639C37.8829 30.2322 38.3816 29.7994 38.9588 29.5014C39.5361 29.2033 40.1752 29.0486 40.8234 29.05H45.1329C45.4162 29.0485 45.6967 29.1074 45.9559 29.2229C46.2152 29.3384 46.4474 29.5079 46.6374 29.7203L57.2456 41.425H70.6332C73.3384 41.425 75.9329 42.5115 77.8458 44.4455C79.7587 46.3794 80.8333 49.0025 80.8333 51.7375ZM76.7533 51.7375C76.7466 50.0986 76.0996 48.5287 74.9533 47.3698C73.807 46.2109 72.2543 45.5568 70.6332 45.55H56.3531C56.0697 45.5515 55.7893 45.4926 55.5301 45.3771C55.2708 45.2616 55.0386 45.0921 54.8485 44.8797L44.2404 33.175H40.8234L44.0109 42.843C44.1108 43.153 44.1374 43.4824 44.0887 43.8048C44.04 44.1271 43.9173 44.4334 43.7304 44.6992C43.542 44.9652 43.293 45.1814 43.0045 45.3295C42.716 45.4776 42.3964 45.5532 42.0729 45.55H33.9128C33.615 45.5494 33.321 45.482 33.052 45.3527C32.7831 45.2234 32.5458 45.0355 32.3573 44.8024L27.8692 39.3625H24.4012L27.9967 51.4539C28.3716 52.731 29.1458 53.8508 30.2031 54.6456C31.2605 55.4404 32.5442 55.8674 33.8618 55.8625H76.7533V51.7375Z" fill="white"/>
</svg>
