<svg width="102" height="102" viewBox="0 0 102 102" fill="none" xmlns="http://www.w3.org/2000/svg">
<rect x="0.583313" y="0.81665" width="100.833" height="100.833" rx="16.1333" fill="#F2785C"/>
<path d="M38.6199 54.1463C39.5856 54.1463 40.5118 53.7627 41.1946 53.0798C41.8775 52.3969 42.2611 51.4708 42.2611 50.5051C42.2611 49.5394 41.8775 48.6132 41.1946 47.9304C40.5118 47.2475 39.5856 46.8639 38.6199 46.8639C37.6542 46.8639 36.728 47.2475 36.0452 47.9304C35.3623 48.6132 34.9787 49.5394 34.9787 50.5051C34.9787 51.4708 35.3623 52.3969 36.0452 53.0798C36.728 53.7627 37.6542 54.1463 38.6199 54.1463ZM54.6412 50.5051C54.6412 51.4708 54.2576 52.3969 53.5747 53.0798C52.8919 53.7627 51.9657 54.1463 51 54.1463C50.0343 54.1463 49.1081 53.7627 48.4253 53.0798C47.7424 52.3969 47.3588 51.4708 47.3588 50.5051C47.3588 49.5394 47.7424 48.6132 48.4253 47.9304C49.1081 47.2475 50.0343 46.8639 51 46.8639C51.9657 46.8639 52.8919 47.2475 53.5747 47.9304C54.2576 48.6132 54.6412 49.5394 54.6412 50.5051ZM63.3801 54.1463C64.3458 54.1463 65.2719 53.7627 65.9548 53.0798C66.6377 52.3969 67.0213 51.4708 67.0213 50.5051C67.0213 49.5394 66.6377 48.6132 65.9548 47.9304C65.2719 47.2475 64.3458 46.8639 63.3801 46.8639C62.4144 46.8639 61.4882 47.2475 60.8054 47.9304C60.1225 48.6132 59.7389 49.5394 59.7389 50.5051C59.7389 51.4708 60.1225 52.3969 60.8054 53.0798C61.4882 53.7627 62.4144 54.1463 63.3801 54.1463ZM42.2611 62.1569C42.2611 63.1226 41.8775 64.0488 41.1946 64.7317C40.5118 65.4145 39.5856 65.7981 38.6199 65.7981C37.6542 65.7981 36.728 65.4145 36.0452 64.7317C35.3623 64.0488 34.9787 63.1226 34.9787 62.1569C34.9787 61.1912 35.3623 60.2651 36.0452 59.5822C36.728 58.8994 37.6542 58.5157 38.6199 58.5157C39.5856 58.5157 40.5118 58.8994 41.1946 59.5822C41.8775 60.2651 42.2611 61.1912 42.2611 62.1569ZM51 65.7981C51.9657 65.7981 52.8919 65.4145 53.5747 64.7317C54.2576 64.0488 54.6412 63.1226 54.6412 62.1569C54.6412 61.1912 54.2576 60.2651 53.5747 59.5822C52.8919 58.8994 51.9657 58.5157 51 58.5157C50.0343 58.5157 49.1081 58.8994 48.4253 59.5822C47.7424 60.2651 47.3588 61.1912 47.3588 62.1569C47.3588 63.1226 47.7424 64.0488 48.4253 64.7317C49.1081 65.4145 50.0343 65.7981 51 65.7981ZM24.7833 34.1197C24.7833 31.7054 25.7424 29.39 27.4495 27.6829C29.1567 25.9757 31.4721 25.0167 33.8863 25.0167H68.1136C70.5279 25.0167 72.8433 25.9757 74.5504 27.6829C76.2576 29.39 77.2167 31.7054 77.2167 34.1197V68.347C77.2167 70.7613 76.2576 73.0766 74.5504 74.7838C72.8433 76.4909 70.5279 77.45 68.1136 77.45H33.8863C31.4721 77.45 29.1567 76.4909 27.4495 74.7838C25.7424 73.0766 24.7833 70.7613 24.7833 68.347V34.1197ZM33.8863 28.6579C32.4378 28.6579 31.0485 29.2333 30.0243 30.2576C29 31.2819 28.4245 32.6711 28.4245 34.1197V36.6685H73.5755V34.1197C73.5755 32.6711 73 31.2819 71.9757 30.2576C70.9514 29.2333 69.5622 28.6579 68.1136 28.6579H33.8863ZM28.4245 68.347C28.4245 69.7955 29 71.1848 30.0243 72.2091C31.0485 73.2334 32.4378 73.8088 33.8863 73.8088H68.1136C69.5622 73.8088 70.9514 73.2334 71.9757 72.2091C73 71.1848 73.5755 69.7955 73.5755 68.347V40.3097H28.4245V68.347Z" fill="white"/>
</svg>
