<svg width="102" height="102" viewBox="0 0 102 102" fill="none" xmlns="http://www.w3.org/2000/svg">
<rect x="0.699966" y="0.81665" width="100.833" height="100.833" rx="16.1333" fill="#F2785C"/>
<path d="M36.4118 71.1528C34.4618 71.1528 32.5917 70.3483 31.2128 68.9164C29.834 67.4846 29.0593 65.5425 29.0593 63.5175C29.0593 61.4926 29.834 59.5505 31.2128 58.1186C32.5917 56.6867 34.4618 55.8823 36.4118 55.8823C38.3617 55.8823 40.2319 56.6867 41.6107 58.1186C42.9896 59.5505 43.7642 61.4926 43.7642 63.5175C43.7642 65.5425 42.9896 67.4846 41.6107 68.9164C40.2319 70.3483 38.3617 71.1528 36.4118 71.1528ZM36.4118 52.6101C33.6261 52.6101 30.9545 53.7593 28.9847 55.8048C27.0149 57.8503 25.9083 60.6247 25.9083 63.5175C25.9083 66.4104 27.0149 69.1847 28.9847 71.2303C30.9545 73.2758 33.6261 74.425 36.4118 74.425C39.1975 74.425 41.8691 73.2758 43.8388 71.2303C45.8086 69.1847 46.9152 66.4104 46.9152 63.5175C46.9152 60.6247 45.8086 57.8503 43.8388 55.8048C41.8691 53.7593 39.1975 52.6101 36.4118 52.6101ZM56.9986 48.2471H65.8215V44.3204H59.0993L55.0239 37.1869C54.4147 36.0962 53.2173 35.3763 51.9569 35.3763C50.9696 35.3763 50.0663 35.7908 49.4361 36.4671L41.6635 44.5168C41.0123 45.193 40.6131 46.0656 40.6131 47.1564C40.6131 48.5307 41.3064 49.6869 42.3987 50.3632L49.4361 54.7916V65.699H53.2173V51.5193L48.4908 47.9199L53.3644 42.7934L56.9986 48.2471ZM65.8215 71.1528C63.8715 71.1528 62.0014 70.3483 60.6225 68.9164C59.2437 67.4846 58.4691 65.5425 58.4691 63.5175C58.4691 61.4926 59.2437 59.5505 60.6225 58.1186C62.0014 56.6867 63.8715 55.8823 65.8215 55.8823C67.7715 55.8823 69.6416 56.6867 71.0204 58.1186C72.3993 59.5505 73.1739 61.4926 73.1739 63.5175C73.1739 65.5425 72.3993 67.4846 71.0204 68.9164C69.6416 70.3483 67.7715 71.1528 65.8215 71.1528ZM65.8215 52.6101C63.0358 52.6101 60.3642 53.7593 58.3944 55.8048C56.4246 57.8503 55.318 60.6247 55.318 63.5175C55.318 66.4104 56.4246 69.1847 58.3944 71.2303C60.3642 73.2758 63.0358 74.425 65.8215 74.425C67.2008 74.425 68.5666 74.1429 69.841 73.5947C71.1153 73.0466 72.2732 72.2431 73.2486 71.2303C74.2239 70.2174 74.9976 69.015 75.5254 67.6916C76.0533 66.3683 76.325 64.9499 76.325 63.5175C76.325 62.0851 76.0533 60.6668 75.5254 59.3434C74.9976 58.0201 74.2239 56.8177 73.2486 55.8048C72.2732 54.792 71.1153 53.9885 69.841 53.4404C68.5666 52.8922 67.2008 52.6101 65.8215 52.6101V52.6101ZM59.5194 36.9034C61.6201 36.9034 63.3006 35.1582 63.3006 32.9767C63.3006 30.7952 61.6201 29.05 59.5194 29.05C57.4187 29.05 55.7381 30.7952 55.7381 32.9767C55.7381 35.1582 57.4187 36.9034 59.5194 36.9034Z" fill="white"/>
</svg>
